<svg width="1000" height="458" viewBox="0 0 1000 458" fill="none" xmlns="http://www.w3.org/2000/svg">
<path fill-rule="evenodd" clip-rule="evenodd" d="M304.303 157.791C318.086 143.43 335.516 133.084 354.727 127.86C363.264 125.224 372.365 125.002 381.02 127.219C389.676 129.436 397.548 134.005 403.764 140.42C431.995 172.553 425.468 248.89 383.04 367.391C381.905 370.425 379.627 372.895 376.693 374.271C373.759 375.647 370.403 375.821 367.343 374.755C364.282 373.69 361.761 371.469 360.318 368.568C358.875 365.667 358.626 362.318 359.623 359.235C412.74 210.64 395.197 168.475 385.161 157.302C382.042 154.128 378.093 151.895 373.765 150.857C369.437 149.818 364.904 150.017 360.684 151.43C341.104 157.42 324.08 169.759 312.299 186.499C329.597 256.719 342.407 336.97 320.458 368.859C317.889 372.874 314.451 376.263 310.399 378.775C306.346 381.287 301.782 382.859 297.041 383.376C293.306 383.777 289.53 383.242 286.054 381.818C282.578 380.394 279.512 378.126 277.133 375.22C253.96 347.981 265.547 245.464 277.949 200.527C279.684 194.383 282.149 188.469 285.292 182.911C284.068 178.099 282.763 173.206 281.376 168.149C259.182 87.0006 222.711 25.0179 209.819 25.0179C199.946 30.7268 174 85.3695 233.726 248.482C234.67 251.465 234.459 254.693 233.134 257.528C231.809 260.362 229.467 262.596 226.572 263.786C223.678 264.976 220.441 265.036 217.505 263.954C214.568 262.872 212.145 260.726 210.716 257.942C149.114 123.946 119.741 85.0432 108.807 73.9516C104.483 94.096 101.953 155.671 175.387 290.402C176.804 293.208 177.11 296.446 176.242 299.468C175.375 302.489 173.398 305.072 170.708 306.7C168.017 308.328 164.811 308.881 161.731 308.249C158.65 307.616 155.921 305.844 154.091 303.288C151.484 299.406 148.818 295.432 146.107 291.391C111.905 240.412 70.6367 178.899 53.3243 161.217C51.2029 181.116 57.4039 239.429 121.209 336.073C123.025 338.76 123.723 342.047 123.155 345.24C122.588 348.432 120.8 351.278 118.17 353.175C115.54 355.072 112.275 355.872 109.065 355.405C105.855 354.938 102.954 353.24 100.974 350.672C55.5273 292.522 32.355 278.739 24.1958 275.559C25.1749 290.81 42.0645 340.967 80.821 382.642C106.686 410.616 149.359 441.689 205.984 430.76C207.591 430.45 209.244 430.458 210.848 430.786C212.452 431.114 213.975 431.754 215.331 432.671C216.687 433.587 217.85 434.762 218.752 436.127C219.654 437.492 220.278 439.022 220.589 440.628C220.9 442.235 220.891 443.887 220.563 445.49C220.235 447.093 219.594 448.616 218.678 449.971C217.761 451.327 216.586 452.489 215.22 453.391C213.854 454.292 212.324 454.916 210.716 455.227C201.394 457.084 191.91 458.012 182.404 458C114.111 458 67.0319 408.821 43.6964 376.851C15.2206 338.031 -8.44127 280.534 2.9001 260.063C4.53385 257.108 6.88446 254.611 9.73589 252.801C12.5873 250.991 15.8481 249.927 19.2186 249.705C31.7397 250.369 43.658 255.289 52.9979 263.651C25.1749 201.179 24.3589 158.852 33.3341 142.54C34.7575 139.517 36.9729 136.936 39.7453 135.069C42.5177 133.202 45.7438 132.12 49.0815 131.938C59.5253 131.53 68.5821 136.668 98.037 176.957C73.9672 102.252 83.5952 67.4271 88.6539 56.2539C89.99 52.9922 92.2416 50.1866 95.137 48.1751C98.0325 46.1637 101.448 45.0324 104.972 44.9176H104.994C112.51 44.9175 128.679 44.9173 175.06 129.655C162.903 54.949 176.774 15.2311 197.825 3.3239C201.229 1.3425 205.061 0.211483 208.995 0.0269033C212.93 -0.157676 216.851 0.609633 220.426 2.26367C253.96 16.3729 288.474 101.436 304.303 157.791ZM295.654 358.991C297.498 358.384 299.043 357.102 299.979 355.402C304.466 348.796 315.563 321.964 296.552 230.703C286.516 283.551 286.597 348.144 295.654 358.991ZM936.4 76.8081H990.332C991.936 76.6007 993.565 76.8509 995.032 77.5299C996.499 78.2088 997.744 79.2887 998.622 80.6449C999.501 82.001 999.978 83.578 999.999 85.1937C1000.02 86.8094 999.581 88.3979 998.736 89.7756L920.244 259.82C916.55 268.619 914.477 278.013 914.125 287.549V361.684C914.125 365.52 912.606 369.2 909.9 371.92C907.194 374.641 903.521 376.18 899.683 376.201H849.422C847.515 376.201 845.626 375.826 843.864 375.096C842.102 374.366 840.501 373.297 839.152 371.949C837.804 370.601 836.734 369.001 836.004 367.239C835.274 365.478 834.899 363.59 834.899 361.684V287.549C834.576 278.018 832.531 268.623 828.861 259.82L781.211 156.325C779.235 152.504 776.287 149.27 772.663 146.951C769.039 144.631 764.867 143.307 760.568 143.113H687.134C685.227 143.113 683.339 143.489 681.576 144.218C679.814 144.948 678.213 146.017 676.865 147.365C675.516 148.713 674.446 150.314 673.716 152.075C672.987 153.836 672.611 155.724 672.611 157.63V175.573C672.611 179.423 674.141 183.115 676.865 185.838C679.588 188.56 683.283 190.09 687.134 190.09H741.475C745.327 190.09 749.021 191.619 751.745 194.342C754.468 197.064 755.999 200.757 755.999 204.607V242.041C755.977 245.885 754.44 249.565 751.721 252.282C749.002 255 745.32 256.537 741.475 256.558H687.298C683.46 256.558 679.778 258.076 677.057 260.781C674.335 263.486 672.796 267.158 672.774 270.994V295.46C672.774 299.311 674.304 303.003 677.028 305.725C679.752 308.448 683.446 309.977 687.298 309.977H777.049C780.816 310.083 784.394 311.648 787.028 314.342C789.662 317.035 791.145 320.646 791.165 324.413V361.684C791.166 365.465 789.692 369.097 787.056 371.808C784.42 374.519 780.83 376.095 777.049 376.201H607.99C604.138 376.201 600.444 374.672 597.72 371.949C594.996 369.227 593.466 365.534 593.466 361.684V271.972C593.466 268.136 591.947 264.456 589.241 261.736C586.535 259.016 582.862 257.477 579.024 257.455H518.319C516.412 257.455 514.523 257.831 512.761 258.56C510.999 259.29 509.398 260.359 508.05 261.707C506.701 263.055 505.631 264.655 504.901 266.417C504.172 268.178 503.796 270.066 503.796 271.972V361.684C503.796 365.534 502.266 369.227 499.542 371.949C496.818 374.672 493.124 376.201 489.272 376.201H438.93C435.078 376.201 431.384 374.672 428.66 371.949C425.936 369.227 424.406 365.534 424.406 361.684V317.725C451.169 225.404 451.087 163.421 424.406 129.33V91.3251C424.406 87.475 425.936 83.7825 428.66 81.06C431.384 78.3376 435.078 76.8081 438.93 76.8081H489.272C491.207 76.7646 493.131 77.108 494.931 77.8181C496.73 78.5282 498.37 79.5906 499.754 80.943C501.137 82.2953 502.236 83.9104 502.986 85.6933C503.737 87.4762 504.123 89.3909 504.122 91.3251V173.778C504.122 177.629 505.652 181.321 508.376 184.044C511.1 186.766 514.794 188.295 518.646 188.295H579.024C582.791 188.169 586.36 186.583 588.979 183.874C591.598 181.166 593.06 177.545 593.058 173.778V91.3251C593.058 87.475 594.588 83.7825 597.312 81.06C600.036 78.3376 603.73 76.8081 607.582 76.8081H815.072C819.271 76.9923 823.329 78.3827 826.759 80.8127C830.188 83.2427 832.844 86.6094 834.409 90.5096L846.893 125.742C848.787 131.02 851.448 138.72 853.769 145.434C854.747 148.264 855.665 150.92 856.439 153.145L869.494 192.536C870.879 197.29 872.766 201.883 875.124 206.238C877.571 201.906 879.515 197.309 880.917 192.536L894.787 153.063L904.579 125.742L917.062 90.5096C918.627 86.6094 921.283 83.2427 924.713 80.8127C928.142 78.3827 932.2 76.9923 936.4 76.8081Z" fill="url(#paint0_linear_635_338)" style=""/>
<defs>
<linearGradient id="paint0_linear_635_338" x1="-16.1925" y1="229.072" x2="1002.49" y2="229.072" gradientUnits="userSpaceOnUse">
<stop stop-color="#0074E4" style="stop-color:#0074E4;stop-color:color(display-p3 0.0000 0.4549 0.8941);stop-opacity:1;"/>
<stop offset="1" stop-color="#5522FA" style="stop-color:#5522FA;stop-color:color(display-p3 0.3333 0.1333 0.9804);stop-opacity:1;"/>
</linearGradient>
</defs>
</svg>
